<?xml version="1.0" encoding="utf-8"?>
<!-- Generator: Adobe Illustrator 23.0.4, SVG Export Plug-In . SVG Version: 6.00 Build 0)  -->
<svg version="1.1" id="Capa_1" xmlns="http://www.w3.org/2000/svg" xmlns:xlink="http://www.w3.org/1999/xlink" x="0px" y="0px"
	 viewBox="0 0 578.1 578.1" style="enable-background:new 0 0 578.1 578.1;" xml:space="preserve">
<style type="text/css">
	.st0{fill:#FFFFFF;}
</style>
<g>
	<g>
		<path class="st0" d="M572.7,453.2c1.2,9.2-1.6,17.2-8.4,24l-80,79.4c-3.6,4-8.3,7.4-14.1,10.2c-5.8,2.8-11.5,4.6-17.1,5.4
			c-0.4,0-1.6,0.1-3.6,0.3c-2,0.2-4.6,0.3-7.8,0.3c-7.6,0-19.9-1.3-37-3.9c-17-2.6-37.9-9-62.5-19.2c-24.7-10.2-52.6-25.6-83.9-46
			c-31.3-20.4-64.5-48.5-99.8-84.2c-28.1-27.7-51.3-54.1-69.7-79.4c-18.4-25.3-33.3-48.6-44.5-70c-11.2-21.4-19.6-40.9-25.3-58.3
			s-9.4-32.5-11.4-45.1S4.8,144.2,5.2,137s0.6-11.2,0.6-12c0.8-5.6,2.6-11.3,5.4-17.1c2.8-5.8,6.2-10.5,10.2-14.1l80-80
			c5.6-5.6,12-8.4,19.2-8.4c5.2,0,9.8,1.5,13.8,4.5s7.4,6.7,10.2,11.1L209,143c3.6,6.4,4.6,13.4,3,21c-1.6,7.6-5,14-10.2,19.2
			l-29.5,29.5c-0.8,0.8-1.5,2.1-2.1,3.9c-0.6,1.8-0.9,3.3-0.9,4.5c1.6,8.4,5.2,18,10.8,28.9c4.8,9.6,12.2,21.3,22.2,35.2
			c10,13.8,24.2,29.8,42.7,47.8c18,18.4,34.1,32.8,48.1,43c14,10.2,25.8,17.7,35.2,22.5c9.4,4.8,16.6,7.7,21.6,8.7l7.5,1.5
			c0.8,0,2.1-0.3,3.9-0.9c1.8-0.6,3.1-1.3,3.9-2.1l34.3-34.9c7.2-6.4,15.6-9.6,25.3-9.6c6.8,0,12.2,1.2,16.2,3.6h0.6l116,68.5
			C566.1,438.5,571.1,445.2,572.7,453.2z"/>
	</g>
</g>
</svg>
